<!DOCTYPE svg PUBLIC "-//W3C//DTD SVG 1.1//EN" "http://www.w3.org/Graphics/SVG/1.1/DTD/svg11.dtd">
<!-- Uploaded to: SVG Repo, www.svgrepo.com, Transformed by: SVG Repo Mixer Tools -->
<svg height="800px" width="800px" version="1.1" id="Layer_1" xmlns="http://www.w3.org/2000/svg" xmlns:xlink="http://www.w3.org/1999/xlink" viewBox="0 0 512 512" xml:space="preserve" fill="#000000">
<g id="SVGRepo_bgCarrier" stroke-width="0"/>
<g id="SVGRepo_tracerCarrier" stroke-linecap="round" stroke-linejoin="round"/>
<g id="SVGRepo_iconCarrier"> <circle style="fill:#FF9ECA;" cx="256" cy="256" r="245.8"/> <g> <path style="fill:#4D1E1E;" d="M437.019,74.98C388.667,26.628,324.381,0,256,0C187.621,0,123.333,26.628,74.98,74.98 S0,187.62,0,256s26.628,132.667,74.98,181.02S187.621,512,256,512c68.381,0,132.667-26.628,181.019-74.98 C485.372,388.667,512,324.38,512,256S485.372,123.333,437.019,74.98z M431.544,412.957c-36.986-40.607-58.22-92.054-60.571-146.757 h51.274c5.632,0,10.199-4.566,10.199-10.199s-4.567-10.199-10.199-10.199h-51.274c2.351-54.703,23.585-106.15,60.571-146.757 c37.324,41.7,60.058,96.72,60.058,156.957S468.868,371.256,431.544,412.957z M20.633,266.199h120.394 c-2.351,54.703-23.585,106.15-60.572,146.756C45.25,373.622,23.041,322.435,20.633,266.199z M80.456,99.044 c36.986,40.607,58.22,92.054,60.572,146.756H20.633C23.041,189.565,45.25,138.378,80.456,99.044z M266.199,245.801V20.633 c58.32,2.497,111.211,26.29,151.082,63.79c-40.926,44.508-64.34,101.149-66.719,161.378L266.199,245.801L266.199,245.801z M245.801,245.801h-84.363c-2.379-60.229-25.793-116.87-66.719-161.378c39.871-37.5,92.761-61.292,151.081-63.79L245.801,245.801 L245.801,245.801z M161.438,266.199h84.363v225.168c-58.32-2.497-111.211-26.29-151.081-63.79 C135.645,383.069,159.06,326.429,161.438,266.199z M266.199,266.199h84.363c2.379,60.229,25.793,116.87,66.719,161.378 c-39.871,37.499-92.761,61.292-151.082,63.79V266.199z"/> <path style="fill:#4D1E1E;" d="M463.044,245.801h-4.08c-5.632,0-10.199,4.566-10.199,10.199c0,5.633,4.567,10.199,10.199,10.199 h4.08c5.632,0,10.199-4.566,10.199-10.199S468.676,245.801,463.044,245.801z"/> </g> </g>
</svg>